<?xml version="1.0" standalone="no"?><svg xmlns="http://www.w3.org/2000/svg" viewBox="0 0 1440 320"><path fill="#0099ff" fill-opacity="1" d="M0,96L26.7,80C53.3,64,107,32,160,48C213.3,64,267,128,320,181.3C373.3,235,427,277,480,288C533.3,299,587,277,640,261.3C693.3,245,747,235,800,245.3C853.3,256,907,288,960,272C1013.3,256,1067,192,1120,149.3C1173.3,107,1227,85,1280,101.3C1333.3,117,1387,171,1413,197.3L1440,224L1440,320L1413.3,320C1386.7,320,1333,320,1280,320C1226.7,320,1173,320,1120,320C1066.7,320,1013,320,960,320C906.7,320,853,320,800,320C746.7,320,693,320,640,320C586.7,320,533,320,480,320C426.7,320,373,320,320,320C266.7,320,213,320,160,320C106.7,320,53,320,27,320L0,320Z"></path></svg>